<svg height="37" viewBox="0 0 37 37" width="37" xmlns="http://www.w3.org/2000/svg"><g fill="#fff" fill-rule="evenodd" opacity=".1"><rect height="4" rx="2" width="4"/><rect height="4" rx="2" width="4" x="11"/><rect height="4" rx="2" width="4" x="22"/><rect height="4" rx="2" width="4" x="33"/><rect height="4" rx="2" width="4" y="11"/><rect height="4" rx="2" width="4" x="11" y="11"/><rect height="4" rx="2" width="4" x="22" y="11"/><rect height="4" rx="2" width="4" x="33" y="11"/><rect height="4" rx="2" width="4" y="22"/><rect height="4" rx="2" width="4" x="11" y="22"/><rect height="4" rx="2" width="4" x="22" y="22"/><rect height="4" rx="2" width="4" x="33" y="22"/><rect height="4" rx="2" width="4" y="33"/><rect height="4" rx="2" width="4" x="11" y="33"/><rect height="4" rx="2" width="4" x="22" y="33"/><rect height="4" rx="2" width="4" x="33" y="33"/></g></svg>