<svg height="26" viewBox="0 0 32 26" width="32" xmlns="http://www.w3.org/2000/svg"><g fill="none" transform="translate(.448 .8)"><path d="m12.348 25.2c2.976 0 5.262-.672 6.858-2.016s2.394-3.228 2.394-5.652c0-1.248-.336-2.37-1.008-3.366s-1.5-1.71-2.484-2.142c.744-.384 1.422-.996 2.034-1.836s.918-1.836.918-2.988c0-2.304-.744-4.08-2.232-5.328s-3.756-1.872-6.804-1.872h-11.124c-.264 0-.48.09-.648.27s-.252.402-.252.666v23.364c0 .24.09.45.27.63s.39.27.63.27zm-1.08-15.228h-4.5v-5.112h4.5c.912 0 1.602.234 2.07.702s.702 1.074.702 1.818c0 .768-.24 1.392-.72 1.872s-1.164.72-2.052.72zm.324 10.368h-4.824v-5.652h4.824c.912 0 1.632.27 2.16.81s.792 1.218.792 2.034c0 .792-.258 1.458-.774 1.998s-1.242.81-2.178.81z" fill="#fff"/><path d="m30.42 25.2c.264 0 .48-.09.648-.27s.252-.39.252-.63v-4.752c0-.264-.084-.486-.252-.666s-.384-.27-.648-.27h-4.752c-.264 0-.486.09-.666.27s-.27.402-.27.666v4.752c0 .264.09.48.27.648s.402.252.666.252z" fill="#ff4c60"/></g></svg>