<svg enable-background="new 0 0 512 512" height="512" viewBox="0 0 512 512" width="512" xmlns="http://www.w3.org/2000/svg"><path d="m26.002 26.001h459.996v459.998h-459.996z" fill="#f0db4f"/><g fill="#323330"><path d="m276.331 384.759c0 44.767-26.286 65.2-64.586 65.2-34.601 0-54.623-17.865-64.892-39.529l35.218-21.255c6.777 12.013 12.938 22.177 27.826 22.177 14.169 0 23.207-5.544 23.207-27.208v-146.934h43.227z"/><path d="m378.598 449.959c-40.147 0-66.124-19.099-78.754-44.151l35.219-20.332c9.241 15.095 21.356 26.286 42.611 26.286 17.866 0 29.364-8.932 29.364-21.355 0-14.787-11.704-20.021-31.52-28.75l-10.781-4.62c-31.214-13.246-51.853-29.983-51.853-65.2 0-32.447 24.745-57.09 63.248-57.09 27.518 0 47.232 9.549 61.402 34.603l-33.679 21.562c-7.392-13.246-15.401-18.481-27.825-18.481-12.63 0-20.639 8.01-20.639 18.481 0 12.938 8.009 18.176 26.594 26.285l10.78 4.621c36.759 15.71 57.397 31.832 57.397 67.974.002 38.81-30.597 60.167-71.564 60.167z"/></g></svg>