<svg height="17" viewBox="0 0 49 17" width="49" xmlns="http://www.w3.org/2000/svg"><g fill="#ff4c60" fill-rule="evenodd"><path d="m5-4c5.7170859 0 10.9989499 2.3825 13.8566928 6.25s2.8577429 8.6325 0 12.5-8.1396069 6.25-13.8566928 6.25v-2.5c4.57302865 0 8.7988399-1.90625 11.0853543-5 2.2865143-3.09375 2.2865143-6.90625 0-10-2.2865144-3.09375-6.51232565-5-11.0853543-5z" transform="matrix(0 -1 1 0 4.5 21.5)"/><path d="m28-4c5.7170859 0 10.9989499 2.3825 13.8566928 6.25s2.8577429 8.6325 0 12.5-8.1396069 6.25-13.8566928 6.25v-2.5c4.5730287 0 8.7988399-1.90625 11.0853543-5 2.2865143-3.09375 2.2865143-6.90625 0-10-2.2865144-3.09375-6.5123256-5-11.0853543-5z" transform="matrix(0 -1 1 0 27.5 44.5)"/></g></svg>